<svg width="624" height="465" fill="none" xmlns="http://www.w3.org/2000/svg"><path d="m446.529 308.502 79.386-37.479c-37.824-34.863-111.48-58.521-196.146-58.521-123.264 0-223.191 50.142-223.191 112.002 0 61.857 99.927 112.002 223.191 112.002 94.674 0 175.575-29.586 208.011-71.334l-91.251-56.67Z" fill="#00A249"/><path d="m446.529 308.502 79.386-37.479c-37.824-34.863-111.48-58.521-196.146-58.521-123.264 0-223.191 50.142-223.191 112.002 0 61.857 99.927 112.002 223.191 112.002 94.674 0 175.575-29.586 208.011-71.334l-91.251-56.67Z" stroke="#1A1919" stroke-width="9" stroke-linecap="round" stroke-linejoin="round"/><path d="M427.656 312.627c1.5-16.5-15.081-29.259-34.239-28.641-3.018-7.002-16.917-33.714-20.511-40.359l-57.876-1.365-57.876 1.365c-3.594 6.645-17.493 33.357-20.511 40.359-19.155-.618-35.739 12.141-34.239 28.641 2.091 22.977 11.352 19.851 29.001 28.5-10.416 4.188-26.001 11.499-26.001 11.499l23.499 1.5-3.6 10.917s48.228-24.042 69.6-24.417c6.678-.12 14.595-.759 20.127-1.287 5.535.528 13.452 1.167 20.127 1.287 21.372.375 69.6 24.417 69.6 24.417l-3.6-10.917 23.499-1.5s-15.582-7.311-26.001-11.499c17.652-8.649 26.913-5.523 29.001-28.5" fill="#89C140"/><path d="M427.656 312.627c1.5-16.5-15.081-29.259-34.239-28.641-3.018-7.002-16.917-33.714-20.511-40.359l-57.876-1.365-57.876 1.365c-3.594 6.645-17.493 33.357-20.511 40.359-19.155-.618-35.739 12.141-34.239 28.641 2.091 22.977 11.352 19.851 29.001 28.5-10.416 4.188-26.001 11.499-26.001 11.499l23.499 1.5-3.6 10.917s48.228-24.042 69.6-24.417c6.678-.12 14.595-.759 20.127-1.287 5.535.528 13.452 1.167 20.127 1.287 21.372.375 69.6 24.417 69.6 24.417l-3.6-10.917 23.499-1.5s-15.582-7.311-26.001-11.499c17.652-8.649 26.913-5.523 29.001-28.5v0Z" stroke="#1A1919" stroke-width="9" stroke-linecap="round" stroke-linejoin="round"/><path d="M178.524 135.165c-1.785-20.466 10.644-46.113 54.507-48.666 29.568-1.722 41.121 15.627 47.496 31.002l20.502-1.002c3.669-19.797 19.497-38.874 60.372-36.624 29.592 1.629 39.051 26.535 42.123 39.126 3.591 14.7 2.502 20.499 6.252 28.749 4.725 10.398 30.009 13.749 25.755 55.749-7.821 77.217-249.189 72.888-270.255 23.001-14.25-33.75 6.753-49.5 14.253-59.25l-1.005-32.085Z" fill="#8FC23F"/><path d="M178.524 135.165c-1.785-20.466 10.644-46.113 54.507-48.666 29.568-1.722 41.121 15.627 47.496 31.002l20.502-1.002c3.669-19.797 19.497-38.874 60.372-36.624 29.592 1.629 39.051 26.535 42.123 39.126 3.591 14.7 2.502 20.499 6.252 28.749 4.725 10.398 30.009 13.749 25.755 55.749-7.821 77.217-249.189 72.888-270.255 23.001-14.25-33.75 6.753-49.5 14.253-59.25l-1.005-32.085Z" stroke="#1A1919" stroke-width="9" stroke-linecap="round" stroke-linejoin="round"/><path d="M270.528 291c10.404-10.239 30.216-15.207 44.25-15 19.386.279 42.096 6.012 53.394 22.404 9.006 13.071-12.129 39.6-24.057 40.347-18.759 1.167-37.395 2.637-56.139 3.582-11.889.597-27.174-41.76-17.448-51.333Z" fill="#FFFFFE"/><path d="M270.528 291c10.404-10.239 30.216-15.207 44.25-15 19.386.279 42.096 6.012 53.394 22.404 9.006 13.071-12.129 39.6-24.057 40.347-18.759 1.167-37.395 2.637-56.139 3.582-11.889.597-27.174-41.76-17.448-51.333Z" stroke="#1A1919" stroke-width="9" stroke-linecap="round" stroke-linejoin="round"/><path d="M373.41 179.388c.219 7.863-32.733 25.458-73.881 26.613-41.139 1.155-74.886-14.568-75.108-22.434-.219-7.863 148.767-12.042 148.989-4.179" fill="#E88194"/><path d="M373.41 179.388c.219 7.863-32.733 25.458-73.881 26.613-41.139 1.155-74.886-14.568-75.108-22.434-.219-7.863 148.767-12.042 148.989-4.179v0Z" stroke="#1A1919" stroke-width="7.425" stroke-linecap="round" stroke-linejoin="round"/><path d="M213.528 195.375c0 8.49-7.218 15.375-16.125 15.375s-16.125-6.885-16.125-15.375c0-8.493 7.218-15.375 16.125-15.375s16.125 6.882 16.125 15.375Zm205.5-7.5c0 8.49-7.218 15.375-16.125 15.375-8.904 0-16.125-6.885-16.125-15.375 0-8.493 7.221-15.375 16.125-15.375 8.907 0 16.125 6.882 16.125 15.375Z" fill="#E88194"/><path d="M428.892 37.503c0 8.88-5.76 16.077-12.861 16.077-7.104 0-12.864-7.197-12.864-16.077 0-8.88 13.398-31.086 13.398-31.086s12.327 22.206 12.327 31.086" fill="#C9E8F2"/><path d="M428.892 37.503c0 8.88-5.76 16.077-12.861 16.077-7.104 0-12.864-7.197-12.864-16.077 0-8.88 13.398-31.086 13.398-31.086s12.327 22.206 12.327 31.086v0Z" stroke="#1A1919" stroke-width="7.074" stroke-linecap="round" stroke-linejoin="round"/><path d="M518.526 189.084c0 8.88-5.76 16.08-12.861 16.08-7.104 0-12.864-7.2-12.864-16.08 0-8.88 13.398-31.083 13.398-31.083s12.327 22.203 12.327 31.083" fill="#C9E8F2"/><path d="M518.526 189.084c0 8.88-5.76 16.08-12.861 16.08-7.104 0-12.864-7.2-12.864-16.08 0-8.88 13.398-31.083 13.398-31.083s12.327 22.203 12.327 31.083v0Z" stroke="#1A1919" stroke-width="7.074" stroke-linecap="round" stroke-linejoin="round"/><path d="M116.526 167.085c0 8.88-5.76 16.08-12.861 16.08-7.104 0-12.864-7.2-12.864-16.08 0-8.88 13.398-31.083 13.398-31.083s12.327 22.203 12.327 31.083" fill="#C9E8F2"/><path d="M116.526 167.085c0 8.88-5.76 16.08-12.861 16.08-7.104 0-12.864-7.2-12.864-16.08 0-8.88 13.398-31.083 13.398-31.083s12.327 22.203 12.327 31.083v0Z" stroke="#1A1919" stroke-width="7.074" stroke-linecap="round" stroke-linejoin="round"/><path d="M529.278 289.875C515.403 306 530.529 324.501 552.528 324" stroke="#1A1919" stroke-width="5.844" stroke-linecap="round" stroke-linejoin="round"/><path d="M609.528 283.002c16.125 6.498 9.999 20.964 3.999 25.998" stroke="#1A1919" stroke-width="6.48" stroke-linecap="round" stroke-linejoin="round"/><path d="M581.421 283.671c7.503 1.605 12.891 5.862 13.089 11.058.171 4.5-2.232 10.146-9.381 11.025m-22.098 4.245c-9.375.375-15.096-5.766-15.378-11.124-.375-7.125 4.284-12.237 11.406-14.463l3.972 25.587Z" stroke="#1A1919" stroke-width="6.309" stroke-linecap="round" stroke-linejoin="round"/><path d="M506.028 36v108m63.501 150.501V120v174.501Z" stroke="#1A1919" stroke-width="6.48" stroke-linecap="round" stroke-linejoin="round"/><path d="M573.03 324.999c9.378-.018 16.419-.681 24.501-5.499" stroke="#1A1919" stroke-width="5.844" stroke-linecap="round" stroke-linejoin="round"/><path d="m442.77 254.502-28.002 18.999m-233.997-3.999L208.77 280.5l-27.999-10.998Zm-38.001 48h39.999-39.999Zm99.999 60.999-25.998 23.001 25.998-23.001Zm81 3 6.999 39-6.999-39Zm77.001 0 33.999 24-33.999-24Z" stroke="#1A1919" stroke-width="6" stroke-linecap="round" stroke-linejoin="round"/><path d="M254 136c0 16.016-13.208 29-29.5 29S195 152.016 195 136s13.208-29 29.5-29 29.5 12.984 29.5 29Z" fill="#fff"/><path d="M254 136c0 16.016-13.208 29-29.5 29S195 152.016 195 136s13.208-29 29.5-29 29.5 12.984 29.5 29Z" stroke="#000"/><ellipse cx="224.5" cy="136" rx="12.5" ry="12" fill="#000"/><path d="M383 129c0 16.016-13.208 29-29.5 29S324 145.016 324 129s13.208-29 29.5-29 29.5 12.984 29.5 29Z" fill="#fff"/><path d="M383 129c0 16.016-13.208 29-29.5 29S324 145.016 324 129s13.208-29 29.5-29 29.5 12.984 29.5 29Z" stroke="#000"/><ellipse class="eye-right" cx="353.5" cy="129" rx="12.5" ry="12" fill="#000"/></svg>