<svg width="22" height="22" viewBox="0 0 22 22" fill="none" xmlns="http://www.w3.org/2000/svg">
<path d="M18.6122 4.41455C18.1724 3.9661 17.6502 3.61037 17.0754 3.36766C16.5007 3.12495 15.8846 3.00003 15.2625 3.00003C14.6403 3.00003 14.0243 3.12495 13.4495 3.36766C12.8748 3.61037 12.3526 3.9661 11.9127 4.41455L11 5.34479L10.0872 4.41455C9.19876 3.50915 7.99383 3.0005 6.73743 3.0005C5.48103 3.0005 4.2761 3.50915 3.38769 4.41455C2.49928 5.31995 2.00018 6.54793 2.00018 7.82836C2.00018 9.10879 2.49928 10.3368 3.38769 11.2422L4.30047 12.1724L11 19L17.6994 12.1724L18.6122 11.2422C19.0522 10.7939 19.4013 10.2617 19.6395 9.67599C19.8776 9.09024 20.0002 8.4624 20.0002 7.82836C20.0002 7.19431 19.8776 6.56648 19.6395 5.98073C19.4013 5.39497 19.0522 4.86278 18.6122 4.41455Z" stroke="#BDBDBD" stroke-width="1.5" stroke-linecap="round" stroke-linejoin="round"/>
</svg>
