<svg width="80" height="80" viewBox="0 0 80 80" fill="none" xmlns="http://www.w3.org/2000/svg">
<rect width="80" height="80" rx="40" fill="#6327FE"/>
<path d="M34.1111 58.5556C35.0316 58.5556 35.7778 57.8094 35.7778 56.8889C35.7778 55.9684 35.0316 55.2222 34.1111 55.2222C33.1907 55.2222 32.4445 55.9684 32.4445 56.8889C32.4445 57.8094 33.1907 58.5556 34.1111 58.5556Z" fill="#F2F2F2" stroke="#F2F2F2" stroke-width="2" stroke-linecap="round" stroke-linejoin="round"/>
<path d="M49.6667 58.5556C50.5871 58.5556 51.3333 57.8094 51.3333 56.8889C51.3333 55.9684 50.5871 55.2222 49.6667 55.2222C48.7462 55.2222 48 55.9684 48 56.8889C48 57.8094 48.7462 58.5556 49.6667 58.5556Z" fill="#F2F2F2" stroke="#F2F2F2" stroke-width="2" stroke-linecap="round" stroke-linejoin="round"/>
<path d="M21.3334 26.3333H27.394L31.4546 46.1699C31.5931 46.8519 31.9726 47.4646 32.5266 47.9006C33.0806 48.3367 33.7738 48.5683 34.4849 48.555H49.2122C49.9232 48.5683 50.6164 48.3367 51.1704 47.9006C51.7244 47.4646 52.1039 46.8519 52.2425 46.1699L54.6667 33.7406H28.9091" stroke="#F2F2F2" stroke-width="3" stroke-linecap="round" stroke-linejoin="round"/>
</svg>
