<svg width="22" height="22" viewBox="0 0 22 22" fill="none" xmlns="http://www.w3.org/2000/svg">
<path d="M8.861 19.5556C9.36726 19.5556 9.77767 19.1452 9.77767 18.6389C9.77767 18.1326 9.36726 17.7222 8.861 17.7222C8.35474 17.7222 7.94434 18.1326 7.94434 18.6389C7.94434 19.1452 8.35474 19.5556 8.861 19.5556Z" fill="#6327FE" stroke="#6327FE" stroke-width="2" stroke-linecap="round" stroke-linejoin="round"/>
<path d="M17.4167 19.5556C17.9229 19.5556 18.3333 19.1452 18.3333 18.6389C18.3333 18.1326 17.9229 17.7222 17.4167 17.7222C16.9104 17.7222 16.5 18.1326 16.5 18.6389C16.5 19.1452 16.9104 19.5556 17.4167 19.5556Z" fill="#6327FE" stroke="#6327FE" stroke-width="2" stroke-linecap="round" stroke-linejoin="round"/>
<path d="M1.83325 1.83334H5.16659L7.39992 12.7434C7.47612 13.1186 7.68484 13.4555 7.98954 13.6954C8.29424 13.9352 8.6755 14.0626 9.06659 14.0553H17.1666C17.5577 14.0626 17.9389 13.9352 18.2436 13.6954C18.5483 13.4555 18.757 13.1186 18.8333 12.7434L20.1666 5.90732H5.99992" stroke="#6327FE" stroke-width="2" stroke-linecap="round" stroke-linejoin="round"/>
</svg>
