<?xml version="1.0" encoding="utf-8"?>
<!-- Generator: Adobe Illustrator 25.4.1, SVG Export Plug-In . SVG Version: 6.00 Build 0)  -->
<svg version="1.1" id="레이어_1" xmlns="http://www.w3.org/2000/svg" xmlns:xlink="http://www.w3.org/1999/xlink" x="0px"
	 y="0px" viewBox="0 0 260.45 239.15" style="enable-background:new 0 0 260.45 239.15;" xml:space="preserve">
<style type="text/css">
	.st0{fill:#DF5F14;}
	.st1{fill:none;stroke:#231815;stroke-width:15;stroke-linecap:round;stroke-linejoin:round;stroke-miterlimit:10;}
</style>
<g>
	<g id="XMLID_00000175309827208597267660000010847930809782359698_">
		<g>
			<path class="st0" d="M165.65,151.35c5.69,6.23,13.29,12.3,23.27,16.49c0,0-37.19,24.64-83.43,10.84
				C40.4,159.27,40.4,84.71,40.4,84.71V48.77l152.46,2.55l-0.41,35.76c0,0-1.37,36.91,27.61,53.41c0,0-25.54,15.34-54.4,10.85
				L165.65,151.35z"/>
		</g>
	</g>
	<path class="st1" d="M150.47,125.78c0,0,8.52,29.48,38.45,42.06c0,0-37.19,24.64-83.43,10.85c-65.09-19.41-65.09-93.98-65.09-93.98
		"/>
	<path class="st1" d="M192.44,87.08c0,0-1.37,36.92,27.62,53.41c0,0-25.54,15.33-54.41,10.85"/>
</g>
</svg>
