<?xml version="1.0" encoding="utf-8"?>
<!-- Generator: Adobe Illustrator 25.4.1, SVG Export Plug-In . SVG Version: 6.00 Build 0)  -->
<svg version="1.1" id="레이어_1" xmlns="http://www.w3.org/2000/svg" xmlns:xlink="http://www.w3.org/1999/xlink" x="0px"
	 y="0px" viewBox="0 0 859.93 752.06" style="enable-background:new 0 0 859.93 752.06;" xml:space="preserve">
<style type="text/css">
	.st0{fill:#DF5F14;}
	.st1{fill:none;stroke:#231815;stroke-width:15;stroke-linecap:round;stroke-linejoin:round;stroke-miterlimit:10;}
</style>
<g>
	<path class="st0" d="M563.27,683.37l3.79-0.03c0,0,23.08,35.88,51.02,20.49c28.91-15.93,13.76-53.69,13.76-53.69
		s35.55,22.68,61.98,12.4c39.38-15.31,10.39-80.39,10.39-80.39s55.24,24.61,75.61-15.4c13.76-27.02-26.94-59.53-26.94-59.53
		s47.58-2.19,56-33.36c8.42-31.17-44.02-56.95-45.07-56.88c0,0,59.63-3.72,56.63-48.47c-3.41-50.73-70.85-36.3-70.85-36.3
		c2.39-36.87-21.88-45.57-21.88-45.57s44.48-51.77,20.78-82.4s-73.28-4.01-73.28-4.01s28.8-63.8-10.94-96.98
		c-43.84-36.6-99.9,16.04-99.9,16.04s10.48-62.16-25.89-71.1c-43.98-10.8-57.61,53.6-57.61,53.6s-1.46-61.25-43.75-59.43
		c-42.29,1.82-37.55,74.38-37.55,74.38c-16.17-8.95-24.7,0.95-27.04,4.38c2.26-11.15,6.79-33.64-0.67,1.09c0,0-23.39-74.01-65-65.01
		c-35.23,7.62-35.26,66.1-35.26,66.1s-39.74-43.39-73.28-18.96c-44.08,32.1-6.93,98.81-6.93,98.81
		c-41.25,6.38-39.97,43.39-39.97,43.39s-71.19-27.86-87.59,19.17c-16.95,48.6,37.14,72.71,37.14,72.71s-62.35,4.01-61.62,50.68
		s56.04,52.87,56.04,52.87s-67.3,21.23-52.64,67.54c10.59,33.44,74.99,21.06,74.99,21.06s-42.27,43.03-24.97,74.01
		c13.13,23.52,62.89,7.11,62.89,7.11s-22.24,57.79,5.83,73.47s63.44-31.36,63.44-31.36s-13.01,35.38,11.78,51.25
		c27.34,17.5,50.57-19.27,50.57-19.27l6.64-0.06"/>
	<g>
		<path class="st1" d="M151.44,246.52c0,0-71.19-27.86-87.59,19.17c-16.95,48.6,37.14,72.71,37.14,72.71s-62.35,4.01-61.62,50.68
			c0.73,46.67,56.04,52.87,56.04,52.87s-67.3,21.23-52.64,67.54c10.59,33.44,74.99,21.06,74.99,21.06s-42.27,43.03-24.97,74.01
			c13.13,23.52,62.89,7.11,62.89,7.11s-22.24,57.79,5.83,73.47s63.44-31.36,63.44-31.36s-13.01,35.38,11.78,51.25
			c27.34,17.5,50.57-19.27,50.57-19.27"/>
		<path class="st1" d="M106.46,176.88c0,0,42.29,11.3,65.26,48.86"/>
		<path class="st1" d="M378.82,48.18c0,0,2.55,29.9-6.93,74.01c0,0-23.39-74.01-65-65.01c-35.23,7.62-35.26,66.1-35.26,66.1
			s-39.74-43.39-73.28-18.96c-44.08,32.1-6.93,98.81-6.93,98.81"/>
		<path class="st1" d="M399.6,116.73c0,0-4.74-72.56,37.55-74.38c42.29-1.82,43.75,59.43,43.75,59.43s13.63-64.4,57.61-53.6
			c36.37,8.93,25.89,71.1,25.89,71.1s56.06-52.64,99.9-16.04c39.74,33.18,10.94,96.98,10.94,96.98s49.59-26.62,73.28,4.01
			s-20.78,82.4-20.78,82.4"/>
		<path class="st1" d="M738.67,307.77c0,0,30.26-16.77,68.18-8.63"/>
		<path class="st1" d="M749.61,332.2c0,0,67.43-14.43,70.85,36.3c3.01,44.75-56.63,48.47-56.63,48.47
			c1.04-0.07,53.49,25.7,45.07,56.88s-56,33.36-56,33.36s40.7,32.5,26.94,59.53c-20.38,40.01-75.61,15.4-75.61,15.4
			s28.99,65.08-10.39,80.39c-26.44,10.28-61.98-12.4-61.98-12.4s15.14,37.76-13.76,53.69c-27.94,15.4-51.02-20.49-51.02-20.49"/>
	</g>
</g>
</svg>
